<?xml version="1.0" encoding="UTF-8"?><svg id="_イヤー_2" xmlns="http://www.w3.org/2000/svg" viewBox="0 0 37.95 37.94"><defs><style>.cls-1{fill:#fff;}</style></defs><g id="Layer_1"><g><path class="cls-1" d="M9.47,37.94l-.09-.02c-.09-.02-.18-.04-.27-.04-1.12-.12-2.08-.36-2.91-.76C2.16,35.22,.09,32.05,.04,27.7-.01,23.51,0,19.26,.01,15.14c0-1.63,0-3.26,.01-4.9,0-1.87,.44-3.56,1.29-5C3.34,1.8,6.39,.04,10.37,.02c2.19-.01,4.53-.02,7.15-.02,3.28,0,6.56,0,9.84,.02h.23c.88,0,1.53,.06,2.11,.19,4.12,.92,6.79,3.46,7.94,7.54,.11,.38,.16,.76,.22,1.17,.03,.18,.05,.37,.09,.55V28.49c-.02,.12-.04,.25-.05,.37-.04,.28-.07,.54-.13,.81-.94,4.14-3.48,6.82-7.55,7.97-.38,.11-.76,.16-1.17,.22-.18,.03-.37,.05-.55,.09H9.47ZM14.39,1.75c-1.34,0-2.68,0-4.02,.01-.8,0-1.47,.08-2.06,.22C4.33,2.95,1.77,6.22,1.76,10.33c0,5.17,0,11.27,0,17.3,0,.74,.06,1.37,.19,1.92,.91,3.97,4.26,6.64,8.34,6.65,2.45,0,4.89,0,7.34,0,3.35,0,6.69,0,10.04-.01,.71,0,1.33-.06,1.88-.19,3.96-.9,6.63-4.23,6.65-8.26,.01-4.51,.01-9.1,0-13.54v-3.99c0-1.29-.26-2.47-.76-3.49-1.58-3.24-4.2-4.9-7.78-4.95-1-.01-2.06-.02-3.35-.02-.89,0-1.77,0-2.66,0-.88,0-1.77,0-2.65,0-.79,0-3.86,0-4.63,0Z"/><g><path class="cls-1" d="M18.96,29.23c-5.67-.03-10.26-4.64-10.23-10.28,.03-5.64,4.62-10.23,10.22-10.23h.06c5.67,.03,10.26,4.65,10.23,10.28-.03,5.64-4.62,10.23-10.22,10.23h-.06Zm.02-18.77c-4.67,0-8.48,3.82-8.5,8.49,0,2.26,.87,4.39,2.48,6.01,1.61,1.62,3.75,2.52,6.02,2.52,4.71,0,8.52-3.82,8.52-8.51,0-2.26-.89-4.4-2.5-6.01-1.61-1.61-3.74-2.5-6-2.5h-.01Z"/><path class="cls-1" d="M29.74,10.69c-.75,0-1.47-.31-2.01-.85-.54-.54-.83-1.26-.83-2,0-1.54,1.3-2.84,2.83-2.84h.03c1.56,.02,2.86,1.33,2.84,2.86-.01,1.57-1.29,2.84-2.85,2.84h-.01Zm0-3.95c-.59,.01-1.09,.52-1.08,1.1,0,.59,.5,1.09,1.09,1.1h0c.3,0,.58-.12,.79-.34,.21-.22,.32-.5,.31-.79-.02-.58-.52-1.07-1.1-1.07h-.02Z"/></g></g></g></svg>