<?xml version="1.0" encoding="UTF-8"?><svg id="_イヤー_2" xmlns="http://www.w3.org/2000/svg" viewBox="0 0 53.63 53.63"><defs><style>.cls-1{fill:#4d4d4f;}</style></defs><g id="Layer_1"><g><path class="cls-1" d="M13.39,53.63l-.13-.02c-.13-.03-.26-.05-.39-.06-1.59-.16-2.94-.51-4.12-1.07C3.05,49.77,.13,45.29,.05,39.14-.02,33.23,0,27.21,.02,21.4c0-2.31,.01-4.61,.02-6.92,0-2.65,.61-5.02,1.82-7.07C4.72,2.54,9.03,.05,14.65,.02c3.1-.02,6.41-.02,10.11-.02,4.64,0,9.27,.01,13.91,.02h.33c1.24,0,2.16,.09,2.98,.27,5.83,1.3,9.6,4.89,11.22,10.65,.15,.53,.23,1.07,.31,1.65,.04,.26,.08,.52,.12,.77v26.9c-.03,.17-.05,.35-.07,.52-.05,.4-.1,.77-.19,1.14-1.33,5.85-4.92,9.64-10.67,11.26-.53,.15-1.08,.23-1.65,.31-.26,.04-.52,.08-.77,.12H13.39ZM20.33,2.47c-1.89,0-3.79,0-5.68,.02-1.13,0-2.08,.11-2.92,.32C6.13,4.17,2.5,8.8,2.49,14.6c0,7.31-.01,15.93,0,24.46,0,1.04,.09,1.93,.27,2.71,1.28,5.61,6.02,9.39,11.78,9.4,3.46,0,6.91,0,10.37,0,4.73,0,9.46,0,14.19-.02,1,0,1.87-.09,2.66-.27,5.6-1.28,9.37-5.97,9.39-11.68,.02-6.38,.01-12.86,0-19.13v-5.64c0-1.83-.36-3.49-1.07-4.94-2.23-4.57-5.93-6.93-10.99-7-1.41-.02-2.91-.03-4.73-.03-1.25,0-2.5,0-3.75,0-1.25,0-2.5,0-3.75,0-1.11,0-5.46,0-6.54,0Z"/><g><path class="cls-1" d="M26.79,41.31c-8.02-.05-14.5-6.56-14.45-14.53,.05-7.97,6.53-14.46,14.45-14.46h.08c8.02,.05,14.5,6.56,14.45,14.53-.05,7.97-6.53,14.46-14.45,14.46h-.08Zm.03-26.52c-6.6,.01-11.99,5.4-12.01,12-.01,3.19,1.23,6.2,3.5,8.49,2.28,2.29,5.3,3.56,8.51,3.57,6.65,0,12.04-5.4,12.04-12.03,0-3.2-1.25-6.21-3.53-8.49-2.28-2.28-5.29-3.54-8.49-3.54h-.02Z"/><path class="cls-1" d="M42.03,15.1c-1.07,0-2.07-.43-2.84-1.21-.76-.77-1.18-1.78-1.17-2.83,.01-2.18,1.84-4.02,4-4.02h.04c2.2,.02,4.04,1.88,4.02,4.04-.02,2.21-1.83,4.01-4.02,4.01h-.02Zm-.01-5.58c-.84,.02-1.54,.73-1.53,1.56,0,.83,.71,1.54,1.55,1.55h0c.42,0,.82-.18,1.12-.48,.3-.31,.46-.71,.44-1.12-.03-.82-.74-1.51-1.55-1.51h-.03Z"/></g></g></g></svg>