<?xml version="1.0" encoding="UTF-8"?><svg id="_イヤー_2" xmlns="http://www.w3.org/2000/svg" viewBox="0 0 38.43 31.21"><defs><style>.cls-1{fill:#fff;}</style></defs><g id="Layer_1"><g><path class="cls-1" d="M30.37,31.21H8.07C3.62,31.21,0,27.59,0,23.14V8.07C0,3.62,3.62,0,8.07,0H30.37c4.45,0,8.07,3.62,8.07,8.07v15.07c0,4.45-3.62,8.07-8.07,8.07ZM8.07,1.77C4.59,1.77,1.77,4.59,1.77,8.07v15.07c0,3.47,2.83,6.3,6.3,6.3H30.37c3.47,0,6.3-2.83,6.3-6.3V8.07c0-3.47-2.83-6.3-6.3-6.3H8.07Z"/><path class="cls-1" d="M19.16,20.56c-1.31,0-2.53-.51-3.46-1.43L1.47,4.9l1.25-1.25,14.23,14.23c.59,.59,1.37,.91,2.21,.91s1.62-.32,2.21-.91L35.72,3.53l1.25,1.25-14.35,14.35c-.92,.92-2.15,1.43-3.46,1.43Z"/></g></g></svg>