<?xml version="1.0" encoding="UTF-8"?><svg id="_イヤー_2" xmlns="http://www.w3.org/2000/svg" viewBox="0 0 64.74 64.74"><defs><style>.cls-1{fill:#58595b;}</style></defs><g id="Layer_1"><g><g><polygon class="cls-1" points="41.63 22.48 32.13 12.98 22.64 22.48 32.13 18.84 41.63 22.48"/><path class="cls-1" d="M23.43,36.25h-3.17v12.19h-3.01v-12.19h-3.17v-2.37h9.34v2.37Z"/><path class="cls-1" d="M27.07,37.99c.16-.95,.32-1.74,.63-2.37,.32-.63,.79-1.27,1.58-1.58s1.58-.63,2.69-.63,2.06,.16,2.69,.63c.63,.47,1.11,.95,1.58,1.58,.32,.63,.63,1.42,.63,2.37,.16,.95,.16,1.9,.16,3.01s0,2.22-.16,3.01c-.16,.95-.32,1.74-.63,2.37-.32,.63-.79,1.27-1.58,1.58-.63,.32-1.58,.47-2.69,.47s-2.06-.16-2.69-.47c-.63-.32-1.11-.79-1.58-1.58-.32-.63-.63-1.42-.63-2.37-.16-.79-.16-1.74-.16-2.85s0-2.22,.16-3.17Zm2.85,5.7c0,.63,.16,1.27,.32,1.74,.16,.47,.32,.79,.63,.95,.32,.16,.63,.32,1.11,.32s.79-.16,1.11-.32,.47-.47,.63-.95c.16-.47,.32-.95,.32-1.74v-5.07c0-.63-.16-1.27-.32-1.74-.16-.47-.32-.79-.63-.95-.32-.16-.63-.32-1.11-.32s-.79,.16-1.11,.32-.47,.47-.63,.95c-.16,.47-.32,.95-.32,1.74v5.07Z"/><path class="cls-1" d="M46.7,33.72c.79,0,1.42,.16,1.9,.32,.47,.32,.95,.63,1.27,.95,.32,.47,.47,.95,.63,1.42s.16,1.11,.16,1.58c0,.79-.16,1.42-.32,1.9-.16,.63-.47,.95-.95,1.42-.47,.32-.95,.63-1.42,.79-.63,.16-1.27,.32-1.9,.32h-1.58v5.86h-3.01v-14.72h5.22v.16Zm-.95,6.65c.63,0,1.11-.16,1.42-.47s.47-.95,.47-1.74-.16-1.27-.47-1.74c-.32-.32-.79-.63-1.58-.63h-1.27v4.43h1.42v.16Z"/></g><path class="cls-1" d="M64.74,64.74H0V0H64.74V64.74ZM1.58,63.16H63.16V1.58H1.58V63.16Z"/></g></g></svg>